<svg id="Layer_1" data-name="Layer 1" xmlns="http://www.w3.org/2000/svg" viewBox="0 0 433.45 433.45"><defs><style>.cls-1{fill:#83c6e1;}.cls-2{fill:#f16323;}.cls-3{fill:#c6e0ec;}.cls-4{fill:#bb3a50;}.cls-5{fill:#f9a423;}</style></defs><title>Logo Icon Original</title><path class="cls-1" d="M216.93,362.35V350c73.53,0,133.34-59.82,133.34-133.34h12.39C362.66,297,297.29,362.35,216.93,362.35Z"/><circle class="cls-2" cx="216.72" cy="361.61" r="45.49"/><path class="cls-3" d="M83.59,216.63H71.21c0-80.35,65.37-145.73,145.72-145.73V83.29C143.41,83.29,83.59,143.1,83.59,216.63Z"/><circle class="cls-4" cx="216.51" cy="216.63" r="65.74"/><circle class="cls-5" cx="216.72" cy="71.84" r="45.49"/><circle class="cls-1" cx="361.62" cy="216.63" r="45.49"/><circle class="cls-3" cx="71.83" cy="216.63" r="45.49"/><path class="cls-2" d="M216.85,356h0a6.17,6.17,0,0,0-5.89-6.17,133.44,133.44,0,0,1-110-67.42A6.16,6.16,0,0,0,92.7,280h0a6.2,6.2,0,0,0-2.48,8.55,145.82,145.82,0,0,0,120.15,73.62A6.2,6.2,0,0,0,216.85,356Z"/><path class="cls-5" d="M216.93,77.25h0a6.15,6.15,0,0,0,5.87,6.16,133.44,133.44,0,0,1,107.92,63.8,6.15,6.15,0,0,0,8.14,2.21h0a6.21,6.21,0,0,0,2.38-8.73A145.81,145.81,0,0,0,223.41,71.05,6.21,6.21,0,0,0,216.93,77.25Z"/></svg>